<svg version="1.2" xmlns="http://www.w3.org/2000/svg" viewBox="0 0 1000 1000" width="512" height="512">
	<style>
		.s0 { fill: #ffffff;stroke: #17369c;stroke-linejoin: round;stroke-width: 2 } 
		.s1 { fill: #17369c } 
		.s2 { fill: #516fd9;stroke: #17369c;stroke-linejoin: round;stroke-width: 2 } 
		.s3 { fill: #ebeef7;stroke: #17369c;stroke-linejoin: round;stroke-width: 2 } 
		.s4 { fill: #ebeef7;stroke: #17369c;stroke-linejoin: round } 
		.s5 { fill: #ffffff;stroke: #17369c;stroke-linejoin: round } 
		.s6 { fill: none;stroke: #17369c;stroke-linejoin: round } 
		.s7 { fill: #ebeef7 } 
		.s8 { fill: #bccaf7;stroke: #17369c;stroke-linejoin: round;stroke-width: 2 } 
	</style>
	<g id="OBJECTS">
		<g id="&lt;Group&gt;">
			<g id="&lt;Group&gt;">
				<path id="&lt;Path&gt;" class="s0" d="m898.39 794.25c3.61 4.85-0.25 10.45-8.59 12.52l-244.44 60.61c-8.34 2.07-18.04-0.18-21.64-5.02l-73.69-99.09c-3.6-4.84 0.25-10.45 8.6-12.52l23.6-5.85 5.44 7.31c-3.12 1.48-4.31 4.02-2.63 6.28 2.03 2.73 7.5 4.01 12.21 2.83 4.71-1.16 6.88-4.33 4.86-7.06-1.68-2.26-5.71-3.51-9.7-3.22l-5.44-7.32 43.37-10.76 5.44 7.32c-3.1 1.48-4.3 4.02-2.62 6.28 2.03 2.73 7.5 4 12.21 2.83 4.72-1.16 6.9-4.34 4.86-7.06-1.68-2.26-5.69-3.51-9.7-3.22l-5.44-7.32 43.38-10.75 5.44 7.31c-3.1 1.47-4.3 4.02-2.62 6.28 2.03 2.73 7.5 4 12.21 2.83 4.71-1.17 6.88-4.33 4.85-7.06-1.68-2.26-5.69-3.51-9.69-3.23l-5.44-7.31 43.38-10.76 5.44 7.31c-3.11 1.48-4.3 4.02-2.62 6.28 2.03 2.73 7.5 4 12.21 2.83 4.72-1.16 6.88-4.33 4.85-7.06-1.68-2.26-5.69-3.51-9.69-3.23l-5.44-7.31 43.38-10.76 5.44 7.32c-3.12 1.48-4.3 4.02-2.62 6.28 2.02 2.73 7.49 4 12.21 2.83 4.7-1.16 6.88-4.33 4.85-7.06-1.68-2.26-5.69-3.51-9.7-3.23l-5.43-7.31 23.58-5.85c8.35-2.07 18.05 0.18 21.65 5.02z"/>
				<g id="&lt;Group&gt;">
					<path id="&lt;Path&gt;" class="s1" d="m750.84 733.02l59.83 80.46 3.26-0.81-59.84-80.46z"/>
					<path id="&lt;Path&gt;" class="s1" d="m726.16 739.13l59.84 80.47 3.25-0.81-59.83-80.47z"/>
					<path id="&lt;Path&gt;" class="s1" d="m701.49 745.25l59.84 80.46 3.25-0.8-59.84-80.46z"/>
					<path id="&lt;Path&gt;" class="s1" d="m676.82 751.37l59.84 80.47 3.27-0.82-59.84-80.46z"/>
					<path id="&lt;Path&gt;" class="s1" d="m652.16 757.48l59.84 80.47 3.25-0.81-59.84-80.46z"/>
					<path id="&lt;Path&gt;" class="s1" d="m807.77 733.12l-3.25 0.81 41.98 56.45 3.25-0.81z"/>
					<path id="&lt;Path&gt;" class="s1" d="m627.49 763.6l59.84 80.47 3.25-0.81-59.83-80.46z"/>
					<path id="&lt;Path&gt;" class="s1" d="m602.82 769.72l59.84 80.46 3.25-0.8-59.84-80.47z"/>
				</g>
			</g>
			<g id="&lt;Group&gt;">
				<g id="&lt;Group&gt;">
					<path id="&lt;Path&gt;" class="s2" d="m845.2 340.88l-360.5-208.08c-1.31-0.75-2.67-1.05-3.98-0.93-0.69 0.06-9.27 0.86-9.86 0.91l282.03 506.64c1.97-0.18 3.67-0.31 5.63-0.49 2.96-0.27 5.63-2.61 6.79-6.39l84.6-277.25c1.66-5.47-0.46-11.95-4.71-14.41z"/>
					<path id="&lt;Path&gt;" class="s0" d="m838.73 343.8l-363.88-210.09c-4.26-2.46-9.1 0-10.77 5.47l-83.77 274.82c-1.67 5.46 0.45 11.94 4.71 14.4l363.88 210.08c4.26 2.47 9.11 0 10.77-5.46l83.77-274.82c1.67-5.46-0.45-11.94-4.71-14.4z"/>
					<path id="&lt;Path&gt;" class="s3" d="m831.79 356.84l-358.85-207.19c-1.42-0.82-3.03 0-3.58 1.82l-74.12 243.13c-0.55 1.81 0.16 3.97 1.57 4.79l358.86 207.18c1.43 0.83 3.04 0.01 3.59-1.81l74.12-243.12c0.55-1.82-0.16-3.98-1.59-4.8z"/>
				</g>
				<g id="&lt;Group&gt;" style="opacity: .8">
					<g id="&lt;Group&gt;" style="mix-blend-mode: overlay">
						<path id="&lt;Path&gt;" class="s0" d="m630.18 223.28c0 0-8.98-5.41-22.45-13.52-6.78-3.99-14.68-8.65-23.14-13.64-8.5-4.94-17.56-10.22-26.63-15.48-9.1-5.2-18.2-10.41-26.73-15.28-8.56-4.83-16.55-9.33-23.41-13.19-13.77-7.6-22.94-12.67-22.94-12.67 0 0 8.98 5.4 22.46 13.52 6.77 3.99 14.67 8.65 23.14 13.64 8.5 4.94 17.56 10.21 26.62 15.48 9.1 5.2 18.21 10.4 26.74 15.27 8.56 4.83 16.55 9.33 23.4 13.19 13.77 7.6 22.94 12.68 22.94 12.68z"/>
					</g>
				</g>
				<g id="&lt;Group&gt;" style="opacity: .8">
					<g id="&lt;Group&gt;" style="mix-blend-mode: overlay">
						<path id="&lt;Path&gt;" class="s0" d="m835.39 384.31c0 0-3.88 12.06-9.69 30.17-2.84 9.08-6.15 19.66-9.7 31-3.5 11.36-7.23 23.48-10.95 35.59-3.65 12.14-7.3 24.28-10.72 35.66-3.37 11.4-6.51 22.03-9.2 31.15-5.25 18.27-8.75 30.46-8.75 30.46 0 0 3.87-12.07 9.69-30.18 2.84-9.07 6.15-19.66 9.7-31 3.49-11.35 7.21-23.47 10.94-35.58 3.65-12.14 7.3-24.29 10.72-35.66 3.36-11.4 6.5-22.04 9.19-31.15 5.26-18.28 8.77-30.46 8.77-30.46z"/>
					</g>
				</g>
				<g id="&lt;Group&gt;">
					<path id="&lt;Path&gt;" class="s2" d="m151.31 551.96l-0.03 10.38c0 1.62 1.06 3.25 3.2 4.49l363.89 210.09c4.26 2.45 11.19 2.45 15.42 0l212.75-123.64c2.1-1.22 3.16-2.83 3.16-4.44l0.03-10.37z"/>
					<path id="&lt;Path&gt;" class="s0" d="m746.53 633.98c4.25 2.45 4.27 6.47 0.04 8.93l-212.75 123.64c-4.23 2.45-11.17 2.45-15.41 0l-363.9-210.09c-4.24-2.46-4.27-6.48-0.05-8.93l212.75-123.64c4.24-2.46 11.18-2.46 15.43 0z"/>
					<path id="&lt;Compound Path&gt;" fill-rule="evenodd" class="s4" d="m361.18 440.7l1.57-0.91c2.33-1.36 6.14-1.36 8.49 0l11.73 6.77c2.35 1.35 2.36 3.57 0.03 4.92l-1.57 0.91c-2.33 1.35-6.14 1.36-8.49 0l-11.73-6.77c-2.35-1.36-2.36-3.57-0.03-4.92zm-21.95 17.68l11.73 6.78c2.35 1.35 6.16 1.35 8.49 0.01l9.61-5.59c2.31-1.35 2.3-3.56-0.04-4.91l-11.73-6.78c-2.35-1.35-6.17-1.35-8.49 0l-9.61 5.58c-2.32 1.35-2.3 3.56 0.04 4.91zm69.06 14.42l9.6 5.54c2.34 1.36 6.16 1.36 8.49 0l1.57-0.91c2.33-1.35 2.31-3.57-0.03-4.92l-9.6-5.54c-2.33-1.35-6.15-1.35-8.48 0.01l-1.57 0.91c-2.32 1.35-2.31 3.56 0.02 4.91zm-92.02-1.07l17.58 10.14c2.34 1.36 6.15 1.36 8.49 0l10.78-6.26c2.31-1.35 2.3-3.56-0.04-4.91l-17.57-10.15c-2.35-1.35-6.17-1.35-8.48-0.01l-10.78 6.27c-2.33 1.36-2.32 3.56 0.02 4.92zm97.7 8.89l-9.6-5.54c-2.33-1.35-6.15-1.35-8.46 0l-9.62 5.59c-2.32 1.34-2.31 3.55 0.03 4.9l9.59 5.54c2.35 1.35 6.16 1.35 8.48 0.01l9.62-5.59c2.31-1.35 2.3-3.56-0.04-4.91zm-57.11-2.85l-10.79 6.26c-2.32 1.35-2.31 3.56 0.03 4.92l10.84 6.25c2.35 1.36 6.16 1.36 8.49 0l10.78-6.26c2.32-1.35 2.31-3.56-0.04-4.91l-10.84-6.26c-2.34-1.35-6.16-1.35-8.47 0zm95.54 20.5l9.87 5.69c2.34 1.36 6.16 1.36 8.49 0l1.57-0.91c2.33-1.35 2.31-3.56-0.03-4.92l-9.87-5.69c-2.34-1.35-6.16-1.36-8.48 0l-1.57 0.91c-2.33 1.35-2.32 3.57 0.02 4.92zm-16.17-4.8l-10-5.78c-2.35-1.35-6.17-1.35-8.48 0l-9.62 5.58c-2.32 1.35-2.31 3.56 0.04 4.92l10 5.77c2.35 1.36 6.17 1.36 8.48 0.01l9.62-5.59c2.32-1.35 2.3-3.56-0.04-4.91zm-104.12 7.64c-2.32 1.35-2.31 3.56 0.03 4.92l10.84 6.26c2.34 1.35 6.16 1.35 8.49 0l9.53-5.54c2.32-1.35 2.31-3.57-0.03-4.92l-10.84-6.25c-2.34-1.36-6.16-1.36-8.49 0zm126.24 5.13l-9.87-5.7c-2.34-1.35-6.16-1.35-8.48-0.01l-9.62 5.59c-2.31 1.35-2.3 3.56 0.05 4.91l9.86 5.7c2.34 1.35 6.16 1.35 8.48 0l9.61-5.58c2.32-1.35 2.31-3.56-0.03-4.91zm16.17 4.79l10.84 6.26c2.34 1.36 6.16 1.35 8.49 0l1.57-0.91c2.33-1.35 2.32-3.56-0.03-4.92l-10.84-6.25c-2.34-1.36-6.16-1.36-8.49 0l-1.57 0.91c-2.32 1.35-2.31 3.56 0.03 4.91zm-199.93 8.06l9.91-5.75c2.32-1.35 2.3-3.56-0.04-4.91l-15.73-9.08c-2.34-1.36-6.16-1.36-8.48-0.01l-9.9 5.76c-2.32 1.34-2.31 3.55 0.04 4.91l15.72 9.08c2.35 1.35 6.16 1.35 8.48 0zm108.26 0.27c2.33-1.35 2.31-3.56-0.03-4.92l-9.6-5.54c-2.33-1.34-6.15-1.34-8.48 0.01l-9.52 5.53c-2.33 1.36-2.32 3.57 0.02 4.91l9.59 5.55c2.35 1.35 6.16 1.35 8.49 0zm114.77 5l9.59 5.54c2.34 1.35 6.16 1.35 8.49 0l1.57-0.91c2.32-1.36 2.31-3.57-0.02-4.91l-9.6-5.55c-2.35-1.35-6.16-1.35-8.49 0l-1.57 0.91c-2.33 1.36-2.32 3.57 0.03 4.92zm-16.17-4.8l-10.84-6.25c-2.35-1.36-6.17-1.36-8.49-0.01l-9.61 5.59c-2.32 1.35-2.31 3.56 0.04 4.91l10.84 6.26c2.34 1.35 6.16 1.35 8.48 0l9.61-5.58c2.32-1.35 2.31-3.56-0.03-4.92zm-162.11-0.2c-2.33 1.35-2.3 3.56 0.04 4.91l10.84 6.26c2.35 1.35 6.15 1.36 8.48 0.01l9.95-5.79c2.33-1.35 2.32-3.56-0.03-4.92l-10.84-6.26c-2.34-1.35-6.16-1.35-8.49 0zm-11.79 2.4l-10.84-6.25c-2.34-1.36-6.16-1.36-8.48-0.01l-9.9 5.75c-2.32 1.35-2.31 3.56 0.04 4.91l10.84 6.26c2.34 1.36 6.16 1.36 8.48 0.01l9.9-5.76c2.32-1.34 2.3-3.55-0.04-4.91zm134.85 0.5l-9.86-5.69c-2.35-1.36-6.17-1.36-8.48-0.01l-10.78 6.27c-2.34 1.35-2.32 3.56 0.02 4.91l9.87 5.7c2.33 1.35 6.15 1.35 8.48 0l10.78-6.27c2.32-1.35 2.3-3.56-0.03-4.91zm-65.31 9.72l10 5.77c2.34 1.35 6.16 1.35 8.49 0l9.52-5.54c2.33-1.35 2.32-3.56-0.02-4.91l-10.01-5.78c-2.34-1.35-6.16-1.35-8.49 0l-9.52 5.53c-2.33 1.36-2.32 3.57 0.03 4.93zm142.37 5l10.01 5.78c2.35 1.36 6.16 1.36 8.49 0l1.57-0.91c2.33-1.36 2.32-3.57-0.03-4.92l-10.01-5.78c-2.33-1.35-6.15-1.35-8.48 0l-1.57 0.92c-2.33 1.35-2.32 3.56 0.02 4.91zm-16.17-4.79l-9.6-5.54c-2.34-1.36-6.16-1.36-8.48-0.01l-9.61 5.59c-2.32 1.35-2.3 3.55 0.04 4.91l9.6 5.54c2.33 1.35 6.15 1.35 8.46 0l9.62-5.59c2.32-1.35 2.3-3.56-0.03-4.9zm-142.42-5.28c-2.34-1.35-6.16-1.35-8.49 0l-9.95 5.79c-2.33 1.35-2.3 3.55 0.04 4.91l9.6 5.54c2.33 1.34 6.14 1.35 8.47 0l9.95-5.78c2.33-1.36 2.32-3.57-0.02-4.91zm-59.41 12.58l9.58 5.54c2.35 1.35 6.17 1.35 8.48 0l9.91-5.75c2.32-1.35 2.31-3.56-0.04-4.91l-9.58-5.54c-2.34-1.35-6.16-1.35-8.47 0l-9.91 5.76c-2.32 1.34-2.3 3.55 0.03 4.9zm164.03-3.9l-10.85-6.27c-2.33-1.34-6.15-1.34-8.46 0l-10.78 6.27c-2.34 1.35-2.32 3.57 0.01 4.91l10.85 6.27c2.35 1.35 6.16 1.35 8.49 0l10.78-6.27c2.32-1.34 2.31-3.56-0.04-4.91zm-66.15 9.23l9.87 5.69c2.34 1.36 6.16 1.36 8.49 0l9.52-5.53c2.33-1.35 2.32-3.57-0.02-4.92l-9.87-5.69c-2.33-1.35-6.17-1.36-8.49 0l-9.52 5.53c-2.33 1.35-2.31 3.57 0.02 4.92zm142.38 5.01l8.4 4.85c2.34 1.35 6.16 1.35 8.49-0.01l1.57-0.91c2.32-1.35 2.31-3.57-0.03-4.92l-8.39-4.84c-2.35-1.36-6.17-1.36-8.49 0l-1.57 0.91c-2.33 1.36-2.32 3.57 0.02 4.92zm-16.17-4.8l-10.01-5.78c-2.34-1.35-6.16-1.35-8.47 0l-9.62 5.59c-2.32 1.35-2.3 3.56 0.03 4.9l10.01 5.79c2.35 1.34 6.17 1.35 8.48 0l9.62-5.59c2.32-1.34 2.31-3.55-0.04-4.91zm-142.76 10.97l9.96-5.79c2.32-1.35 2.32-3.56-0.02-4.91l-10.01-5.78c-2.34-1.35-6.17-1.36-8.5 0l-9.95 5.78c-2.33 1.36-2.29 3.56 0.04 4.91l10.01 5.79c2.35 1.35 6.15 1.35 8.47 0zm-59.48-3.89l10.01 5.78c2.34 1.35 6.16 1.35 8.48 0l9.9-5.75c2.32-1.35 2.3-3.57-0.04-4.92l-10-5.78c-2.35-1.35-6.16-1.35-8.48 0l-9.91 5.76c-2.31 1.35-2.3 3.56 0.04 4.91zm164.04-3.9l-9.6-5.54c-2.34-1.36-6.16-1.36-8.48-0.01l-10.78 6.27c-2.33 1.35-2.32 3.56 0.03 4.91l9.6 5.54c2.33 1.35 6.15 1.35 8.47-0.01l10.79-6.26c2.31-1.34 2.3-3.56-0.03-4.9zm-65.89 9.38l10.84 6.26c2.35 1.35 6.17 1.35 8.49 0l9.53-5.53c2.33-1.36 2.31-3.57-0.03-4.93l-10.84-6.25c-2.34-1.36-6.16-1.36-8.49 0l-9.53 5.53c-2.32 1.36-2.31 3.56 0.03 4.92zm124.74-0.64l-8.39-4.84c-2.35-1.36-6.16-1.35-8.49-0.01l-9.61 5.59c-2.32 1.34-2.31 3.56 0.04 4.91l8.39 4.84c2.35 1.36 6.16 1.36 8.48 0.01l9.62-5.59c2.31-1.34 2.3-3.56-0.04-4.91zm16.17 4.8l10.85 6.27c2.34 1.34 6.15 1.34 8.48-0.01l1.57-0.91c2.33-1.36 2.32-3.57-0.02-4.92l-10.85-6.26c-2.33-1.35-6.16-1.35-8.49 0l-1.57 0.91c-2.32 1.35-2.3 3.57 0.03 4.92zm-175.79 1.32l9.85 5.69c2.35 1.35 6.16 1.36 8.48 0.01l9.96-5.79c2.33-1.35 2.31-3.56-0.03-4.92l-9.85-5.68c-2.35-1.36-6.17-1.36-8.5 0l-9.95 5.78c-2.33 1.35-2.3 3.56 0.04 4.91zm-41.01 1.89l9.87 5.7c2.34 1.35 6.16 1.35 8.47 0l9.91-5.75c2.32-1.35 2.31-3.56-0.04-4.91l-9.87-5.7c-2.34-1.35-6.16-1.35-8.47-0.01l-9.91 5.76c-2.31 1.34-2.3 3.55 0.04 4.91zm164.04-3.9l-10.02-5.78c-2.33-1.35-6.15-1.35-8.47 0l-10.78 6.26c-2.33 1.35-2.32 3.57 0.02 4.91l10.02 5.79c2.33 1.34 6.14 1.34 8.48-0.01l10.77-6.27c2.32-1.34 2.31-3.55-0.02-4.9zm-65.05 9.86l9.6 5.54c2.34 1.36 6.16 1.36 8.49 0l9.52-5.53c2.33-1.36 2.32-3.57-0.03-4.92l-9.59-5.54c-2.34-1.35-6.16-1.35-8.48 0.01l-9.53 5.53c-2.33 1.35-2.32 3.56 0.02 4.91zm140.91 4.16l9.59 5.54c2.35 1.36 6.17 1.36 8.5 0l1.56-0.91c2.33-1.35 2.32-3.56-0.03-4.91l-9.59-5.55c-2.34-1.34-6.15-1.34-8.48 0.01l-1.57 0.91c-2.33 1.36-2.32 3.57 0.02 4.91zm-16.17-4.79l-10.85-6.26c-2.33-1.35-6.16-1.35-8.48-0.01l-9.61 5.59c-2.32 1.35-2.3 3.57 0.04 4.91l10.85 6.26c2.33 1.35 6.15 1.35 8.46 0l9.62-5.59c2.32-1.34 2.3-3.55-0.03-4.9zm-160.61 5.55l10.85 6.26c2.34 1.35 6.14 1.35 8.47 0l9.95-5.78c2.33-1.36 2.33-3.56-0.01-4.91l-10.86-6.27c-2.33-1.35-6.15-1.35-8.48 0.01l-9.95 5.78c-2.33 1.35-2.3 3.56 0.03 4.91zm121.56-2.86l-8.39-4.84c-2.34-1.36-6.16-1.36-8.48-0.01l-10.78 6.26c-2.33 1.36-2.31 3.57 0.03 4.92l8.39 4.85c2.34 1.35 6.15 1.34 8.48-0.01l10.78-6.26c2.32-1.35 2.31-3.56-0.03-4.91zm-26.58 62.01l-117.63-67.92c-2.35-1.35-6.16-1.35-8.48 0l-9.91 5.75c-2.31 1.35-2.3 3.56 0.04 4.91l117.64 67.92c2.34 1.35 6.16 1.35 8.48 0.01l9.9-5.76c2.32-1.35 2.31-3.56-0.04-4.91zm103.65-47.29l10 5.78c2.35 1.35 6.17 1.35 8.5 0l1.56-0.92c2.33-1.35 2.32-3.56-0.02-4.91l-10.01-5.78c-2.34-1.35-6.16-1.35-8.49 0l-1.57 0.91c-2.32 1.36-2.31 3.57 0.03 4.92zm-16.17-4.8l-9.6-5.54c-2.33-1.34-6.15-1.34-8.47 0l-9.62 5.59c-2.32 1.35-2.3 3.56 0.03 4.9l9.6 5.54c2.34 1.36 6.16 1.36 8.48 0.01l9.61-5.59c2.32-1.34 2.31-3.55-0.03-4.91zm-159.35 6.28l9.58 5.53c2.35 1.35 6.15 1.36 8.48 0l9.95-5.78c2.33-1.35 2.32-3.56-0.02-4.91l-9.59-5.54c-2.34-1.35-6.16-1.35-8.49 0l-9.95 5.78c-2.33 1.36-2.31 3.56 0.04 4.92zm121.55-2.87l-10.84-6.26c-2.35-1.35-6.17-1.35-8.48 0l-10.78 6.26c-2.33 1.36-2.32 3.57 0.03 4.92l10.84 6.26c2.34 1.35 6.16 1.35 8.49 0l10.78-6.27c2.31-1.34 2.3-3.55-0.04-4.91zm60.05 9.44l-10-5.77c-2.34-1.36-6.16-1.36-8.48-0.01l-9.61 5.59c-2.32 1.35-2.31 3.56 0.03 4.91l10.01 5.78c2.34 1.35 6.16 1.35 8.48 0l9.61-5.58c2.32-1.35 2.31-3.57-0.04-4.92zm16.18 4.8l10.41 6.01c2.33 1.35 6.15 1.35 8.48 0l1.57-0.92c2.33-1.35 2.31-3.56-0.02-4.91l-10.41-6.01c-2.33-1.34-6.16-1.35-8.49 0l-1.57 0.91c-2.33 1.36-2.3 3.57 0.03 4.92zm-175.94 1.23l10.01 5.79c2.34 1.35 6.14 1.35 8.47 0l9.95-5.78c2.33-1.36 2.32-3.57-0.01-4.92l-10.02-5.78c-2.33-1.35-6.15-1.35-8.48 0.01l-9.95 5.78c-2.33 1.35-2.3 3.56 0.03 4.9zm92.73 2.79l9.6 5.54c2.34 1.35 6.16 1.35 8.49 0l10.78-6.27c2.32-1.34 2.31-3.56-0.04-4.91l-9.6-5.54c-2.34-1.36-6.15-1.35-8.46 0l-10.78 6.27c-2.34 1.35-2.33 3.55 0.01 4.91zm-37.05 3.74l10.85 6.26c2.33 1.36 6.15 1.36 8.48 0l9.52-5.54c2.33-1.35 2.32-3.56-0.01-4.91l-10.85-6.26c-2.34-1.35-6.17-1.36-8.5 0l-9.52 5.53c-2.33 1.36-2.3 3.57 0.03 4.92zm117.17 11.03l9.6-5.59c2.32-1.35 2.31-3.56-0.02-4.91l-10.41-6.01c-2.33-1.35-6.16-1.35-8.48-0.01l-9.62 5.59c-2.31 1.35-2.29 3.57 0.04 4.91l10.42 6.02c2.33 1.34 6.14 1.34 8.47 0zm25.74-5.71l10.85 6.26c2.35 1.36 6.16 1.36 8.48 0l1.57-0.91c2.33-1.36 2.33-3.56-0.02-4.91l-10.84-6.27c-2.34-1.35-6.16-1.35-8.48 0.01l-1.57 0.91c-2.33 1.35-2.32 3.56 0.01 4.91zm-176.32 1.01l8.39 4.85c2.35 1.35 6.14 1.35 8.47 0l9.95-5.78c2.33-1.36 2.33-3.57-0.02-4.91l-8.39-4.85c-2.34-1.35-6.16-1.35-8.49 0l-9.95 5.78c-2.33 1.36-2.3 3.56 0.04 4.91zm56.5 7.01l9.6 5.54c2.34 1.35 6.16 1.35 8.49 0l9.52-5.54c2.34-1.35 2.32-3.56-0.02-4.92l-9.6-5.54c-2.33-1.34-6.15-1.34-8.48 0.01l-9.52 5.53c-2.33 1.36-2.32 3.57 0.01 4.92zm142.93 5.32l9.59 5.54c2.34 1.35 6.16 1.35 8.49 0l1.57-0.92c2.32-1.35 2.31-3.56-0.03-4.91l-9.59-5.54c-2.34-1.35-6.16-1.35-8.49 0l-1.57 0.91c-2.32 1.36-2.31 3.57 0.03 4.92zm-178.8-0.41l10.86 6.26c2.34 1.36 6.15 1.36 8.48 0.01l9.95-5.78c2.33-1.36 2.32-3.57-0.03-4.92l-10.85-6.27c-2.33-1.34-6.16-1.34-8.48 0.01l-9.95 5.78c-2.33 1.36-2.31 3.56 0.02 4.91zm93.95 3.47l10.39 6.01c2.35 1.35 6.16 1.35 8.5 0l10.77-6.27c2.32-1.34 2.31-3.55-0.04-4.91l-10.39-6c-2.35-1.36-6.16-1.36-8.48-0.01l-10.78 6.27c-2.33 1.35-2.32 3.56 0.03 4.91zm-36.22 4.23l10 5.78c2.34 1.35 6.16 1.35 8.49 0l9.53-5.54c2.32-1.35 2.31-3.56-0.03-4.91l-10.01-5.78c-2.34-1.35-6.16-1.35-8.49 0l-9.52 5.54c-2.33 1.35-2.32 3.56 0.03 4.91zm117.16 11.02l9.62-5.59c2.31-1.34 2.3-3.55-0.04-4.91l-32.7-18.87c-2.33-1.35-6.15-1.34-8.47 0l-9.61 5.59c-2.32 1.34-2.31 3.56 0.03 4.9l32.69 18.88c2.34 1.35 6.16 1.35 8.48 0zm-151.78-5.38l9.6 5.54c2.33 1.35 6.14 1.35 8.47 0l9.95-5.78c2.33-1.36 2.32-3.57-0.02-4.91l-9.59-5.54c-2.35-1.36-6.17-1.36-8.5 0l-9.95 5.78c-2.33 1.35-2.3 3.56 0.04 4.91zm-53.24-56.36l10 5.78c2.35 1.35 6.17 1.35 8.5 0l9.52-5.54c2.33-1.35 2.32-3.56-0.03-4.92l-10-5.77c-2.34-1.36-6.16-1.36-8.49 0l-9.53 5.53c-2.32 1.36-2.32 3.57 0.03 4.92zm252.7 57.08l-11.89-6.86c-2.34-1.35-6.16-1.35-8.48 0l-1.57 0.91c-2.33 1.35-2.32 3.57 0.02 4.92l11.88 6.86c2.35 1.35 6.17 1.35 8.5 0l1.57-0.91c2.33-1.36 2.31-3.56-0.03-4.92zm-193.59 6.98l-9.59-5.54c-2.35-1.35-6.16-1.35-8.48-0.01l-9.91 5.76c-2.31 1.35-2.3 3.56 0.05 4.92l9.59 5.54c2.33 1.34 6.15 1.34 8.47 0l9.9-5.76c2.32-1.35 2.31-3.56-0.03-4.91zm179.64 1.13l-11.89-6.86c-2.34-1.36-6.16-1.36-8.48-0.01l-9.61 5.58c-2.32 1.36-2.3 3.57 0.04 4.92l11.88 6.86c2.35 1.35 6.16 1.35 8.48 0.01l9.62-5.59c2.32-1.34 2.3-3.56-0.04-4.91zm-163.67 3.78l31.78 18.34c2.34 1.36 6.15 1.36 8.48 0.01l9.95-5.78c2.33-1.36 2.32-3.57-0.03-4.92l-31.77-18.34c-2.34-1.36-6.16-1.36-8.49 0l-9.96 5.78c-2.32 1.35-2.29 3.56 0.04 4.91zm85.3 18.72l9.52-5.54c2.33-1.35 2.32-3.56-0.03-4.92l-41.77-24.11c-2.33-1.35-6.15-1.35-8.48 0.01l-9.52 5.53c-2.33 1.35-2.32 3.57 0.01 4.91l41.77 24.12c2.35 1.35 6.17 1.35 8.5 0zm56.59-9.84l-11.89-6.87c-2.34-1.35-6.16-1.35-8.47 0l-10.79 6.26c-2.33 1.36-2.31 3.57 0.03 4.92l11.89 6.86c2.34 1.36 6.16 1.36 8.49 0l10.78-6.26c2.31-1.35 2.3-3.56-0.04-4.91zm-113.84 11.63l-10.89-6.29c-2.35-1.36-6.16-1.36-8.48-0.01l-9.91 5.76c-2.31 1.34-2.3 3.55 0.05 4.91l10.89 6.29c2.34 1.35 6.16 1.35 8.48 0.01l9.9-5.76c2.32-1.35 2.31-3.56-0.04-4.91zm15.98 4.91l10.66 6.15c2.34 1.35 6.15 1.36 8.48 0.01l9.95-5.79c2.33-1.35 2.32-3.56-0.03-4.92l-10.65-6.15c-2.35-1.35-6.17-1.35-8.5 0l-9.94 5.79c-2.33 1.35-2.31 3.55 0.03 4.91zm74.91-3.21l-11.88-6.86c-2.35-1.35-6.17-1.35-8.49 0l-9.53 5.53c-2.33 1.36-2.31 3.57 0.03 4.92l11.89 6.87c2.34 1.35 6.16 1.35 8.49 0l9.52-5.54c2.33-1.36 2.32-3.57-0.03-4.92zm-67.98 11.53l-10.65-6.16c-2.34-1.35-6.16-1.35-8.48 0l-9.91 5.75c-2.31 1.35-2.3 3.56 0.04 4.91l10.66 6.16c2.34 1.35 6.16 1.35 8.48 0l9.9-5.75c2.32-1.35 2.31-3.56-0.04-4.91zm46.28 1.08l-11.88-6.86c-2.35-1.35-6.17-1.35-8.49 0l-9.95 5.78c-2.34 1.35-2.31 3.56 0.04 4.91l11.88 6.86c2.34 1.36 6.15 1.36 8.48 0.01l9.95-5.78c2.33-1.36 2.32-3.57-0.03-4.92zm-22.12 12.86l-11.89-6.86c-2.34-1.35-6.16-1.35-8.48-0.01l-9.9 5.76c-2.32 1.35-2.31 3.56 0.04 4.91l11.88 6.86c2.35 1.35 6.16 1.35 8.48 0.01l9.91-5.76c2.31-1.35 2.3-3.56-0.04-4.91zm-231.42-240.74l10.85 6.27c2.33 1.34 6.15 1.34 8.48-0.01l1.57-0.91c2.33-1.35 2.31-3.56-0.02-4.91l-10.85-6.27c-2.34-1.35-6.16-1.35-8.49 0l-1.57 0.92c-2.33 1.35-2.32 3.56 0.03 4.91zm6.93 8.55l-10.85-6.27c-2.35-1.35-6.16-1.35-8.48-0.01l-9.62 5.59c-2.31 1.35-2.3 3.56 0.05 4.91l10.84 6.27c2.34 1.35 6.15 1.35 8.47 0l9.62-5.59c2.32-1.34 2.3-3.56-0.03-4.9zm38.02 17.4l10 5.78c2.35 1.35 6.17 1.35 8.49 0l1.57-0.91c2.33-1.36 2.32-3.57-0.03-4.92l-10-5.78c-2.35-1.35-6.16-1.35-8.49 0l-1.57 0.92c-2.33 1.35-2.32 3.56 0.03 4.91zm-135.57-1.07l25.31 14.61c2.34 1.35 6.16 1.35 8.49 0l9.52-5.54c2.33-1.35 2.32-3.56-0.03-4.91l-25.3-14.62c-2.35-1.35-6.17-1.35-8.5 0l-9.52 5.54c-2.33 1.35-2.32 3.56 0.03 4.92zm103.45 12.31l-9.6-5.55c-2.35-1.35-6.16-1.35-8.48-0.01l-10.78 6.27c-2.33 1.36-2.32 3.57 0.03 4.92l9.6 5.54c2.34 1.35 6.15 1.35 8.48-0.01l10.77-6.26c2.32-1.35 2.32-3.55-0.02-4.9zm-125.57 0.54l34.67 20.01c2.33 1.35 6.14 1.35 8.47 0l9.95-5.78c2.32-1.36 2.31-3.57-0.02-4.91l-34.66-20.02c-2.35-1.35-6.17-1.35-8.5 0l-9.95 5.79c-2.33 1.35-2.3 3.55 0.04 4.91zm147.83 12.3l-10.02-5.78c-2.33-1.35-6.15-1.35-8.47 0l-10.77 6.27c-2.33 1.35-2.32 3.56 0.01 4.91l10.02 5.78c2.34 1.36 6.16 1.36 8.49 0l10.78-6.27c2.31-1.34 2.31-3.55-0.04-4.91zm68.39 86.91l8.39 4.85c2.34 1.35 6.17 1.35 8.49 0l9.52-5.54c2.33-1.35 2.33-3.56-0.02-4.92l-8.39-4.84c-2.34-1.35-6.16-1.35-8.5 0l-9.52 5.54c-2.33 1.34-2.32 3.56 0.03 4.91zm108.83 20.3c2.32-1.34 2.31-3.56-0.04-4.91l-10-5.77c-2.35-1.35-6.17-1.35-8.48-0.01l-10.78 6.27c-2.33 1.35-2.32 3.56 0.02 4.91l10.01 5.78c2.34 1.35 6.16 1.35 8.49 0zm50.98 41.92l10.79-6.26c2.31-1.35 2.3-3.56-0.04-4.91l-26.86-15.51c-2.35-1.35-6.16-1.35-8.48-0.01l-10.78 6.27c-2.33 1.35-2.32 3.56 0.03 4.91l26.86 15.51c2.34 1.35 6.15 1.35 8.48 0zm-102.09 1.03l-8.62-4.98c-2.34-1.34-6.17-1.35-8.48 0l-9.9 5.75c-2.32 1.35-2.3 3.57 0.04 4.91l8.62 4.98c2.33 1.35 6.16 1.36 8.48 0.01l9.9-5.76c2.32-1.34 2.3-3.56-0.04-4.91z"/>
					<g id="&lt;Group&gt;">
						<path id="&lt;Path&gt;" class="s5" d="m490.58 656.45l-145.9-84.24c-1.76-1.01-4.61-1.01-6.36 0l-68.42 39.77c-1.75 1.01-1.74 2.66 0.02 3.68l145.9 84.23c1.76 1.02 4.61 1.02 6.36 0l68.42-39.76c1.75-1.02 1.74-2.67-0.02-3.68z"/>
						<path id="&lt;Path&gt;" class="s6" d="m435.97 691.88l-152.27-87.92"/>
						<path id="&lt;Path&gt;" class="s6" d="m339.38 655.77l16.97-9.86"/>
					</g>
				</g>
				<g id="&lt;Group&gt;">
					<g id="&lt;Group&gt;">
						<path id="&lt;Path&gt;" class="s5" d="m452.23 265.69l40.09 23.15c1.1 0.63 2.36 0 2.83-1.4l11.3-33.58c0.47-1.4-0.02-3.04-1.13-3.68l-40.08-23.14c-1.1-0.64-2.36 0-2.83 1.4l-11.3 33.57c-0.47 1.4 0.02 3.05 1.12 3.68z"/>
						<path id="&lt;Path&gt;" class="s5" d="m557.46 431.81l-40.09-23.15c-1.09-0.63-2.36-0.02-2.83 1.39l-11.3 33.57c-0.47 1.4 0.03 3.05 1.12 3.68l40.1 23.15c1.09 0.63 2.35-0.01 2.82-1.41l11.3-33.57c0.47-1.4-0.03-3.03-1.12-3.66z"/>
						<path id="&lt;Path&gt;" class="s5" d="m518.59 405.02l40.1 23.15c1.09 0.63 2.35 0 2.82-1.4l11.3-33.58c0.47-1.4-0.02-3.04-1.11-3.67l-40.1-23.15c-1.09-0.63-2.36 0-2.83 1.4l-11.3 33.57c-0.47 1.4 0.03 3.05 1.12 3.68z"/>
						<path id="&lt;Path&gt;" class="s5" d="m604.88 459.18l-40.11-23.15c-1.09-0.63-2.35-0.01-2.82 1.39l-11.3 33.57c-0.47 1.4 0.03 3.05 1.12 3.68l40.1 23.15c1.09 0.63 2.36 0 2.83-1.4l11.3-33.57c0.47-1.4-0.04-3.04-1.12-3.67z"/>
						<path id="&lt;Path&gt;" class="s5" d="m566 432.39l40.09 23.15c1.1 0.63 2.37 0 2.84-1.4l11.3-33.57c0.47-1.4-0.04-3.05-1.12-3.68l-40.1-23.15c-1.09-0.63-2.36 0-2.83 1.4l-11.3 33.57c-0.47 1.4 0.03 3.05 1.12 3.68z"/>
						<path id="&lt;Path&gt;" class="s5" d="m538.51 319.85l-40.1-23.15c-1.09-0.63-2.36 0-2.83 1.4l-11.29 33.57c-0.48 1.4 0.03 3.05 1.12 3.68l40.09 23.15c1.09 0.63 2.36 0.01 2.84-1.39l11.29-33.58c0.48-1.4-0.03-3.05-1.12-3.68z"/>
						<path id="&lt;Path&gt;" class="s5" d="m499.64 293.06l40.1 23.15c1.08 0.63 2.36 0 2.83-1.4l11.3-33.57c0.47-1.4-0.04-3.05-1.12-3.68l-40.11-23.15c-1.08-0.63-2.35 0-2.82 1.4l-11.3 33.57c-0.47 1.4 0.03 3.05 1.12 3.68z"/>
						<path id="&lt;Path&gt;" class="s5" d="m532.82 362.73l40.1 23.15c1.09 0.63 2.35 0 2.82-1.4l11.3-33.58c0.47-1.4-0.02-3.04-1.11-3.67l-40.1-23.15c-1.09-0.63-2.36 0-2.83 1.4l-11.3 33.57c-0.47 1.4 0.03 3.05 1.12 3.68z"/>
						<path id="&lt;Path&gt;" class="s5" d="m547.05 320.44l40.11 23.15c1.08 0.63 2.34-0.01 2.81-1.41l11.3-33.57c0.48-1.4-0.02-3.04-1.11-3.67l-40.1-23.15c-1.08-0.63-2.36 0-2.83 1.4l-11.3 33.57c-0.47 1.4 0.03 3.05 1.12 3.68z"/>
						<path id="&lt;Path&gt;" class="s5" d="m623.16 411.85l11.3-33.57c0.47-1.4-0.03-3.05-1.12-3.68l-40.1-23.15c-1.09-0.63-2.36 0-2.83 1.4l-11.3 33.57c-0.47 1.4 0.03 3.05 1.12 3.68l40.1 23.15c1.09 0.63 2.36 0 2.83-1.4z"/>
						<path id="&lt;Path&gt;" class="s5" d="m594.46 347.81l40.1 23.15c1.09 0.63 2.36 0 2.83-1.4l11.3-33.57c0.47-1.4-0.03-3.05-1.12-3.68l-40.1-23.15c-1.09-0.63-2.36 0-2.83 1.4l-11.3 33.57c-0.47 1.4 0.03 3.05 1.12 3.68z"/>
						<path id="&lt;Path&gt;" class="s5" d="m680.76 401.98l-40.1-23.16c-1.09-0.62-2.36 0-2.83 1.4l-11.3 33.58c-0.48 1.4 0.03 3.05 1.12 3.68l40.1 23.15c1.09 0.63 2.36 0 2.83-1.4l11.3-33.57c0.47-1.4-0.04-3.06-1.12-3.68z"/>
						<path id="&lt;Path&gt;" class="s5" d="m694.99 359.68l-40.1-23.15c-1.09-0.63-2.36 0-2.83 1.4l-11.3 33.58c-0.47 1.4 0.03 3.05 1.12 3.68l40.1 23.15c1.09 0.63 2.36 0 2.83-1.4l11.3-33.57c0.47-1.41-0.03-3.06-1.12-3.69z"/>
						<path id="&lt;Path&gt;" class="s5" d="m510.05 404.43l-40.1-23.15c-1.09-0.63-2.36-0.01-2.83 1.39l-11.3 33.57c-0.47 1.4 0.04 3.05 1.13 3.68l40.09 23.15c1.09 0.63 2.37 0 2.83-1.4l11.31-33.57c0.46-1.4-0.04-3.04-1.13-3.67z"/>
						<path id="&lt;Path&gt;" class="s5" d="m462.63 377.06l-40.09-23.15c-1.1-0.63-2.35-0.01-2.82 1.39l-11.3 33.57c-0.47 1.4 0.02 3.05 1.12 3.68l40.09 23.15c1.1 0.63 2.35 0 2.83-1.4l11.3-33.58c0.47-1.4-0.03-3.03-1.13-3.66z"/>
						<path id="&lt;Path&gt;" class="s5" d="m423.77 350.27l40.09 23.15c1.09 0.63 2.35 0 2.82-1.4l11.3-33.57c0.47-1.4-0.02-3.05-1.12-3.68l-40.09-23.15c-1.09-0.63-2.36 0-2.82 1.4l-11.31 33.57c-0.46 1.4 0.03 3.05 1.13 3.68z"/>
						<path id="&lt;Path&gt;" class="s5" d="m438 307.98l40.09 23.15c1.09 0.63 2.36 0 2.83-1.4l11.29-33.57c0.48-1.4-0.01-3.05-1.12-3.69l-40.08-23.14c-1.1-0.63-2.36 0-2.83 1.4l-11.3 33.57c-0.47 1.4 0.02 3.05 1.12 3.68z"/>
						<path id="&lt;Path&gt;" class="s5" d="m481.35 340.39l-11.3 33.57c-0.47 1.4 0.04 3.05 1.12 3.68l40.1 23.16c1.09 0.62 2.36 0 2.83-1.4l11.3-33.58c0.47-1.4-0.03-3.05-1.12-3.68l-40.1-23.15c-1.09-0.63-2.36 0-2.83 1.4z"/>
						<path id="&lt;Path&gt;" class="s5" d="m652.29 486.56l-40.1-23.15c-1.09-0.63-2.35-0.02-2.83 1.38l-11.29 33.57c-0.47 1.4 0.03 3.06 1.12 3.69l40.1 23.15c1.09 0.63 2.36 0 2.83-1.4l11.3-33.57c0.47-1.41-0.04-3.04-1.13-3.67z"/>
						<path id="&lt;Path&gt;" class="s5" d="m666.52 444.27l-40.1-23.15c-1.08-0.63-2.35 0-2.83 1.39l-11.3 33.58c-0.47 1.4 0.04 3.05 1.13 3.68l40.1 23.15c1.09 0.63 2.36 0 2.83-1.4l11.29-33.57c0.48-1.4-0.03-3.05-1.12-3.68z"/>
					</g>
					<g id="&lt;Group&gt;">
						<path id="&lt;Path&gt;" class="s1" d="m480.36 197.83c0.54-1.63 1.74-2.54 3.16-1.72 2.7 1.56 3.35 5.29 3.38 9.86l0.22 0.13 2.32-6.9-0.18-0.1-3.13-0.14c-0.56-1.39-1.39-2.47-2.56-3.15-2.65-1.53-5.9-0.87-7.23 3.07-3.02 9.01 6.55 12 4.89 16.94-0.64 1.91-2.27 3.09-4.13 2.01-3.23-1.87-3.44-6.88-3.5-10.79l-0.23-0.14-2.51 7.47 0.19 0.11 3.27 0.09c0.54 1.5 1.39 2.77 2.74 3.55 3.08 1.78 6.81 0.72 8.23-3.5 2.83-8.44-6.4-12.43-4.93-16.79z"/>
						<path id="&lt;Path&gt;" class="s1" d="m496.18 223.81c-1.24 1.94-2.89 2.69-4.49 1.77-1.67-0.96-1.11-4.05-0.03-7.27 0.89-2.66 2.24-6.26 3.91-5.3 0.8 0.46 1.62 1.42 2.11 2.53q-0.34-0.48-0.84-0.76c-1.21-0.7-2.68-0.31-3.25 1.38-0.61 1.82 0.31 3.49 1.4 4.12 1.22 0.71 2.65 0.23 3.22-1.48 0.76-2.25-0.71-5.17-3.61-6.85-3.51-2.02-6.41-0.86-7.88 3.51-1.66 4.92 0.31 8.24 3.39 10.02 2.76 1.59 4.81 0.79 6.27-1.55z"/>
						<path id="&lt;Compound Path&gt;" fill-rule="evenodd" class="s1" d="m516.97 232.25c-1.36 4.05-1.95 7.06-0.23 8.05 1.87 1.08 3.9 0.36 5.22-1.59l0.2 0.12c-1.4 2.12-3.62 3.06-6.49 1.4-3.3-1.9-4.89-5.51-3.38-10.01 1.52-4.5 4.55-5.44 7.85-3.54 3.27 1.89 4.12 5.84 3.09 8.9l-6.18-3.56zm0.18-0.49l1.97 1.14c0.89-2.71 1.8-5.48 0.94-5.97-0.81-0.47-1.89 1.86-2.91 4.83z"/>
						<path id="&lt;Path&gt;" class="s1" d="m509.43 220.5c-2.26-1.31-3.91 0.25-5.01 2.33l4.12-12.26-5.69-3.28-0.08 0.24 1.52 0.88-6.93 20.62-1.53-0.89-0.08 0.25 6.57 3.79 0.08-0.24-0.88-0.51 2.03-6.03c0.89-2.63 2.44-5.04 3.55-4.4 0.61 0.35 0.68 0.75-0.11 3.11l-2.95 8.77-0.88-0.5-0.08 0.24 6.57 3.79 0.08-0.24-1.53-0.88 2.94-8.74c0.82-2.44 0.65-4.69-1.71-6.05z"/>
						<path id="&lt;Compound Path&gt;" fill-rule="evenodd" class="s1" d="m534.21 250.3l1.54 0.89-0.08 0.25-5.69-3.29 1.32-3.92c-1.34 2.45-3.03 3.28-4.84 2.24-2.39-1.38-3.8-5.2-2.38-9.41 1.42-4.23 4.53-5.45 6.92-4.07 1.8 1.03 2.48 3.24 1.99 6.2l4.01-11.9-1.54-0.88 0.08-0.25 5.69 3.29zm-2.4-16.04c-0.74-0.43-1.58 1.21-3.03 5.51-1.43 4.27-1.79 6.17-1.05 6.6 1.04 0.6 3.03-0.56 4.41-4.66 1.39-4.15 0.71-6.85-0.33-7.45z"/>
						<path id="&lt;Path&gt;" class="s1" d="m552.41 245.64l-5.47-3.16-0.09 0.26 1.31 0.76-2.02 6.02c-0.88 2.63-2.44 5.06-3.55 4.41-0.62-0.35-0.68-0.75 0.11-3.12l3.04-9.02-5.69-3.29-0.09 0.26 1.53 0.88-2.94 8.72c-0.82 2.46-0.67 4.7 1.71 6.07 2.26 1.31 3.92-0.27 5.01-2.33l-1.38 4.09 5.7 3.28 0.08-0.24-1.54-0.89z"/>
						<path id="&lt;Compound Path&gt;" fill-rule="evenodd" class="s1" d="m565.47 260.25c-1.36 4.05-1.95 7.06-0.22 8.06 1.85 1.07 3.9 0.36 5.21-1.59l0.19 0.11c-1.38 2.13-3.61 3.06-6.48 1.41-3.31-1.91-4.88-5.51-3.37-10.02 1.52-4.5 4.54-5.44 7.85-3.53 3.26 1.88 4.1 5.83 3.07 8.89l-6.17-3.56zm0.17-0.49l1.99 1.15c0.89-2.71 1.79-5.48 0.94-5.97-0.81-0.47-1.9 1.85-2.93 4.82z"/>
						<path id="&lt;Path&gt;" class="s1" d="m563.28 242.18l-6.13-3.54-0.08 0.24 1.96 1.14-6.94 20.61-1.96-1.14-0.08 0.25 8.09 4.67 0.08-0.24-1.96-1.14z"/>
					</g>
					<g id="&lt;Group&gt;">
						<path id="&lt;Path&gt;" class="s1" d="m462.15 244.2l-1.11 3.29 30.25 17.46 1.1-3.29z"/>
						<path id="&lt;Path&gt;" class="s1" d="m458.66 254.56l30.25 17.46 1.1-3.29-30.24-17.46z"/>
						<path id="&lt;Path&gt;" class="s1" d="m456.28 261.65l19.64 11.34 1.11-3.29-19.65-11.34z"/>
					</g>
					<g id="&lt;Group&gt;">
						<path id="&lt;Path&gt;" class="s1" d="m546.57 339.27l-1.11 3.29 30.25 17.46 1.11-3.29z"/>
						<path id="&lt;Path&gt;" class="s1" d="m543.09 349.63l30.24 17.46 1.1-3.29-30.24-17.46z"/>
						<path id="&lt;Path&gt;" class="s1" d="m540.7 356.72l19.65 11.34 1.1-3.29-19.64-11.34z"/>
					</g>
					<g id="&lt;Group&gt;">
						<path id="&lt;Path&gt;" class="s1" d="m530.9 382.87l-1.11 3.3 30.25 17.46 1.1-3.3z"/>
						<path id="&lt;Path&gt;" class="s1" d="m527.41 393.24l30.25 17.46 1.1-3.29-30.24-17.46z"/>
						<path id="&lt;Path&gt;" class="s1" d="m525.03 400.32l19.64 11.35 1.11-3.29-19.65-11.35z"/>
					</g>
					<g id="&lt;Group&gt;">
						<path id="&lt;Path&gt;" class="s1" d="m564.63 452.53l-1.11 3.29 30.25 17.46 1.11-3.29z"/>
						<path id="&lt;Path&gt;" class="s1" d="m561.14 462.89l30.25 17.46 1.1-3.29-30.24-17.46z"/>
						<path id="&lt;Path&gt;" class="s1" d="m558.76 469.98l19.65 11.34 1.1-3.29-19.64-11.34z"/>
					</g>
					<g id="&lt;Group&gt;">
						<path id="&lt;Path&gt;" class="s1" d="m627.79 435.78l-1.11 3.29 30.24 17.47 1.11-3.3z"/>
						<path id="&lt;Path&gt;" class="s1" d="m624.3 446.15l30.24 17.46 1.1-3.29-30.24-17.46z"/>
						<path id="&lt;Path&gt;" class="s1" d="m621.91 453.23l19.65 11.35 1.1-3.3-19.64-11.34z"/>
					</g>
					<g id="&lt;Group&gt;">
						<path id="&lt;Path&gt;" class="s1" d="m564.63 298.37l-1.11 3.29 30.25 17.46 1.11-3.29z"/>
						<path id="&lt;Path&gt;" class="s1" d="m561.14 308.73l30.25 17.46 1.1-3.29-30.24-17.46z"/>
						<path id="&lt;Path&gt;" class="s1" d="m558.76 315.82l19.65 11.34 1.1-3.29-19.64-11.34z"/>
					</g>
					<g id="&lt;Group&gt;">
						<path id="&lt;Path&gt;" class="s1" d="m612.05 476.65l-1.11 3.29 30.24 17.46 1.11-3.29z"/>
						<path id="&lt;Path&gt;" class="s1" d="m608.56 487.01l30.24 17.46 1.11-3.29-30.24-17.46z"/>
						<path id="&lt;Path&gt;" class="s1" d="m606.18 494.1l19.64 11.34 1.11-3.29-19.65-11.34z"/>
					</g>
					<g id="&lt;Group&gt;">
						<path id="&lt;Path&gt;" class="s1" d="m439.68 325.81l-1.11 3.29 30.24 17.46 1.11-3.29z"/>
						<path id="&lt;Path&gt;" class="s1" d="m436.19 336.17l30.24 17.46 1.11-3.29-30.25-17.46z"/>
						<path id="&lt;Path&gt;" class="s1" d="m433.8 343.26l19.65 11.34 1.1-3.29-19.64-11.34z"/>
					</g>
					<g id="&lt;Group&gt;">
						<path id="&lt;Path&gt;" class="s1" d="m655.64 351.73l-1.11 3.29 30.24 17.46 1.11-3.29z"/>
						<path id="&lt;Path&gt;" class="s1" d="m652.15 362.09l30.24 17.46 1.11-3.29-30.24-17.46z"/>
						<path id="&lt;Path&gt;" class="s1" d="m649.76 369.18l19.65 11.34 1.11-3.29-19.65-11.34z"/>
					</g>
					<g id="&lt;Group&gt;">
						<path id="&lt;Path&gt;" class="s1" d="m422.47 369.91l-1.11 3.29 30.25 17.47 1.1-3.3z"/>
						<path id="&lt;Path&gt;" class="s1" d="m418.98 380.28l30.25 17.46 1.1-3.29-30.24-17.46z"/>
						<path id="&lt;Path&gt;" class="s1" d="m416.6 387.36l19.65 11.35 1.1-3.29-19.64-11.35z"/>
					</g>
					<path id="&lt;Path&gt;" class="s1" d="m515.43 323.62l-0.8-8.21-5.16 4.77-6.27-1.67 1.96 7.89-3.07 7.19 6.39 0.1 4.36 6.11 1.98-7.82 5.79-3.42z"/>
					<path id="&lt;Path&gt;" class="s1" d="m625.46 336.23l-0.8-8.22-5.16 4.78-6.27-1.68 1.97 7.9-3.08 7.18 6.39 0.11 4.36 6.1 1.98-7.82 5.79-3.41z"/>
					<path id="&lt;Path&gt;" class="s1" d="m537.91 436.89l-0.8-8.21-5.16 4.77-6.28-1.67 1.97 7.89-3.07 7.19 6.38 0.1 4.37 6.11 1.98-7.82 5.79-3.42z"/>
					<path id="&lt;Path&gt;" class="s1" d="m534.87 278.64l-12.67 6.28-2.28-7.47-5.61 2.79 4.49 14.76 18.3-9.04z"/>
					<path id="&lt;Path&gt;" class="s1" d="m664.81 403.11l-12.67 6.29-2.28-7.48-5.61 2.79 4.5 14.76 18.29-9.04z"/>
					<path id="&lt;Path&gt;" class="s1" d="m602.33 417.05l-12.67 6.29-2.28-7.48-5.61 2.8 4.5 14.76 18.29-9.05z"/>
					<g id="&lt;Group&gt;">
						<path id="&lt;Path&gt;" class="s1" d="m475.36 303.5q-0.37-0.22-0.9-0.16l-3.94 0.54c-1.24 0.17-1.62 1.38-0.85 2.69l2.45 4.23q0.34 0.57 0.71 0.78c0.6 0.34 1.21-0.03 1.53-1.07l1.49-4.76c0.33-1.06 0.11-1.91-0.49-2.25z"/>
						<path id="&lt;Path&gt;" class="s1" d="m467.29 293.6l-7.59-4.38c-2.07-1.19-4.43-0.01-5.25 2.64l-2.3 7.34c-0.83 2.65 0.18 5.77 2.25 6.96l7.59 4.38c2.06 1.2 4.41 0.01 5.24-2.64l2.29-7.34c0.83-2.65-0.17-5.76-2.23-6.96z"/>
					</g>
					<g id="&lt;Group&gt;">
						<path id="&lt;Path&gt;" class="s1" d="m494.93 412.99q-0.37-0.21-0.91-0.15l-3.94 0.53c-1.24 0.18-1.61 1.39-0.84 2.7l2.45 4.23q0.34 0.56 0.71 0.77c0.6 0.35 1.2-0.02 1.53-1.07l1.49-4.75c0.33-1.06 0.1-1.91-0.49-2.26z"/>
						<path id="&lt;Path&gt;" class="s1" d="m486.85 403.1l-7.59-4.38c-2.06-1.19-4.42-0.02-5.25 2.64l-2.3 7.33c-0.82 2.66 0.19 5.78 2.25 6.97l7.59 4.38c2.07 1.19 4.41 0.01 5.24-2.64l2.3-7.34c0.83-2.65-0.17-5.77-2.24-6.96z"/>
					</g>
					<g id="&lt;Group&gt;">
						<path id="&lt;Path&gt;" class="s1" d="m507.79 362.99l2.37 7.38-7.79 3.92 3.33 10.35-5.56 2.8-3.33-10.33-7.78 3.91-2.37-7.37 7.77-3.94-3.31-10.34 5.56-2.8 3.32 10.33z"/>
					</g>
					<g id="&lt;Group&gt;">
						<path id="&lt;Path&gt;" class="s1" d="m617.94 371.27l2.37 7.38-7.79 3.93 3.33 10.34-5.56 2.8-3.33-10.33-7.78 3.92-2.37-7.38 7.78-3.93-3.32-10.34 5.56-2.8 3.33 10.33z"/>
					</g>
				</g>
				<g id="&lt;Group&gt;">
					<path id="&lt;Path&gt;" class="s5" d="m776.05 437.76l-67.04-38.71c-3.28-1.89-7-0.01-8.32 4.19l-3.72 11.9 4.95 2.85c0.97-1.56 2.66-2.12 4.19-1.24 1.85 1.06 2.75 3.85 2 6.23-0.74 2.37-2.84 3.43-4.69 2.37-1.53-0.88-2.4-2.94-2.25-4.96l-4.94-2.86-6.85 21.87 4.95 2.85c0.97-1.56 2.67-2.13 4.19-1.25 1.85 1.07 2.75 3.86 2 6.24-0.74 2.37-2.84 3.43-4.69 2.37-1.53-0.89-2.4-2.94-2.24-4.96l-4.95-2.86-6.84 21.86 4.95 2.85c0.96-1.55 2.66-2.12 4.18-1.24 1.86 1.07 2.75 3.86 2.01 6.23-0.74 2.38-2.85 3.44-4.69 2.38-1.54-0.89-2.41-2.94-2.25-4.97l-4.95-2.86-6.84 21.87 4.95 2.85c0.97-1.55 2.66-2.12 4.19-1.24 1.85 1.06 2.74 3.86 2 6.23-0.74 2.38-2.84 3.44-4.69 2.37-1.53-0.88-2.4-2.93-2.25-4.96l-4.95-2.86-6.83 21.86 4.94 2.86c0.97-1.56 2.66-2.13 4.19-1.24 1.85 1.06 2.74 3.86 2 6.23-0.74 2.38-2.84 3.43-4.69 2.37-1.53-0.88-2.4-2.93-2.25-4.96l-4.94-2.86-3.72 11.89c-1.32 4.21 0.27 9.15 3.55 11.04l67.04 38.71c3.29 1.9 7 0.03 8.32-4.19l38.54-123.2c1.32-4.21-0.27-9.15-3.56-11.05z"/>
					<g id="&lt;Group&gt;">
						<path id="&lt;Path&gt;" class="s1" d="m762.29 448.6l-38.21-22.06-0.51 1.64 38.21 22.06z"/>
						<path id="&lt;Path&gt;" class="s1" d="m708.91 444.41l-0.51 1.64 54.44 31.44 0.52-1.65z"/>
						<path id="&lt;Path&gt;" class="s1" d="m704.51 458.49l54.45 31.43 0.51-1.65-54.45-31.43z"/>
						<path id="&lt;Path&gt;" class="s1" d="m696.73 483.35l54.45 31.44 0.51-1.65-54.45-31.43z"/>
						<path id="&lt;Path&gt;" class="s1" d="m692.84 495.78l54.45 31.44 0.51-1.64-54.44-31.43z"/>
						<path id="&lt;Path&gt;" class="s1" d="m700.62 470.91l54.45 31.44 0.51-1.64-54.44-31.44z"/>
						<path id="&lt;Path&gt;" class="s1" d="m688.95 508.22l54.45 31.44 0.51-1.64-54.44-31.44z"/>
						<path id="&lt;Path&gt;" class="s1" d="m685.06 520.66l54.45 31.43 0.52-1.64-54.45-31.44z"/>
					</g>
				</g>
				<g id="&lt;Group&gt;">
					<path id="&lt;Path&gt;" class="s0" d="m872.84 392.37l-58.93-34.02c-2.07-1.2-4.42-0.01-5.25 2.64l-13.61 43.52c-0.83 2.65 0.17 5.77 2.24 6.96l58.93 34.03c2.07 1.19 4.41 0.01 5.24-2.65l13.62-43.52c0.83-2.65-0.17-5.77-2.24-6.96z"/>
					<g id="&lt;Group&gt;">
						<g id="&lt;Group&gt;">
							<path id="&lt;Path&gt;" class="s1" d="m819.53 370.99c1.17 0.68 1.26 1.78 0.88 2.99l-1.34 4.29 0.77 0.44-0.04 0.12-3.24-1.87 0.04-0.12 0.43 0.25 1.35-4.31c0.36-1.16 0.33-1.36 0.02-1.53-0.55-0.32-1.27 0.87-1.68 2.16l-0.93 2.96 0.43 0.25-0.04 0.13-3.22-1.87 0.04-0.12 0.75 0.43 1.91-6.11-0.75-0.44 0.04-0.12 2.79 1.61-0.62 2.02c0.51-1.03 1.3-1.8 2.41-1.16z"/>
						</g>
						<g id="&lt;Group&gt;">
							<path id="&lt;Compound Path&gt;" fill-rule="evenodd" class="s1" d="m836.22 385.97l0.1 0.06c-0.66 1.04-1.73 1.5-3.15 0.68-1.62-0.93-2.44-2.7-1.74-4.92 0.69-2.22 2.16-2.68 3.78-1.74 1.61 0.93 2.06 2.87 1.59 4.38l-3.04-1.75-0.04 0.11c-0.62 1.99-0.87 3.47-0.02 3.96 0.91 0.52 1.9 0.17 2.52-0.78zm-1.04-5.8c-0.39-0.22-0.9 0.92-1.37 2.38l0.98 0.56c0.4-1.34 0.81-2.69 0.39-2.94z"/>
						</g>
						<g id="&lt;Group&gt;">
							<path id="&lt;Path&gt;" class="s1" d="m831.23 375.8l-0.56 1.8 1.16 0.66-0.04 0.13-1.16-0.67-1.51 4.84c-0.22 0.69-0.2 1.1 0.09 1.26 0.3 0.18 0.82 0.13 1.31-0.51l0.08 0.09c-0.53 0.73-1.39 0.98-2.48 0.35-1.2-0.7-1.33-1.47-0.96-2.64l1.43-4.57-0.79-0.45 0.04-0.13 0.78 0.46 0.43-1.38c0.65 0.37 1.54 0.79 2.18 0.76z"/>
						</g>
						<g id="&lt;Group&gt;">
							<path id="&lt;Compound Path&gt;" fill-rule="evenodd" class="s1" d="m824.86 374.07c1.73 1 2.31 3.14 1.75 4.93-0.56 1.81-2.1 2.71-3.82 1.72-1.74-1.01-2.32-3.13-1.75-4.94 0.56-1.79 2.08-2.71 3.82-1.71zm-2.04 6.52c0.43 0.24 1.07-0.81 1.69-2.8 0.62-1.99 0.74-3.35 0.31-3.59-0.41-0.25-1.07 0.8-1.69 2.79-0.63 1.99-0.73 3.36-0.31 3.6z"/>
						</g>
						<g id="&lt;Group&gt;">
							<path id="&lt;Path&gt;" class="s1" d="m842.36 384.17l-0.61 1.94-0.1-0.05c-0.16-1.11-0.37-2.34-1.39-2.93-0.56-0.32-0.98-0.12-1.1 0.25-0.4 1.3 3.08 2.69 2.22 5.43-0.51 1.65-1.82 1.59-2.76 1.05q-0.87-0.52-1.24-1.53l-0.99 0.24-0.08-0.05 0.73-2.34 0.09 0.05c0.06 1.76 0.49 2.89 1.51 3.48 0.71 0.41 1.17 0.22 1.31-0.2 0.39-1.26-3.05-2.58-2.15-5.43 0.4-1.3 1.47-1.67 2.5-1.07 0.49 0.28 0.81 0.72 1.02 1.24l0.95-0.13z"/>
						</g>
					</g>
					<g id="&lt;Group&gt;">
						<path id="&lt;Path&gt;" class="s1" d="m811.64 384.9l-1.11 3.29 48.69 28.16 1.11-3.3z"/>
						<path id="&lt;Path&gt;" class="s1" d="m808.15 395.26l48.69 28.16 1.11-3.29-48.69-28.16z"/>
						<path id="&lt;Path&gt;" class="s1" d="m805.77 402.35l31.21 17.99 1.1-3.29-31.21-18z"/>
					</g>
				</g>
				<g id="&lt;Group&gt;">
					<path id="&lt;Path&gt;" class="s0" d="m450.49 228.95l-58.93-34.02c-2.07-1.19-4.42-0.01-5.24 2.64l-13.62 43.52c-0.83 2.66 0.17 5.77 2.24 6.96l58.93 34.03c2.07 1.19 4.42 0.01 5.25-2.64l13.61-43.53c0.83-2.65-0.17-5.76-2.24-6.96z"/>
					<g id="&lt;Group&gt;">
						<g id="&lt;Group&gt;">
							<path id="&lt;Path&gt;" class="s1" d="m397.18 207.57c1.17 0.68 1.27 1.79 0.89 2.99l-1.34 4.29 0.76 0.44-0.04 0.12-3.24-1.86 0.04-0.13 0.43 0.25 1.35-4.31c0.36-1.16 0.33-1.35 0.02-1.53-0.55-0.32-1.27 0.87-1.68 2.17l-0.92 2.96 0.42 0.24-0.04 0.13-3.22-1.87 0.04-0.12 0.75 0.43 1.91-6.11-0.75-0.43 0.04-0.13 2.79 1.62-0.62 2.01c0.52-1.02 1.3-1.79 2.41-1.16z"/>
						</g>
						<g id="&lt;Group&gt;">
							<path id="&lt;Compound Path&gt;" fill-rule="evenodd" class="s1" d="m413.87 222.56l0.1 0.05c-0.66 1.04-1.73 1.5-3.15 0.69-1.62-0.94-2.43-2.71-1.74-4.93 0.69-2.21 2.17-2.67 3.79-1.74 1.61 0.93 2.05 2.88 1.58 4.38l-3.04-1.75-0.04 0.11c-0.62 2-0.87 3.47-0.02 3.96 0.91 0.53 1.9 0.18 2.52-0.77zm-1.04-5.8c-0.39-0.23-0.9 0.91-1.37 2.37l0.98 0.56c0.4-1.33 0.81-2.69 0.39-2.93z"/>
						</g>
						<g id="&lt;Group&gt;">
							<path id="&lt;Path&gt;" class="s1" d="m408.88 212.38l-0.56 1.8 1.16 0.67-0.04 0.12-1.15-0.67-1.52 4.84c-0.22 0.7-0.2 1.1 0.09 1.27 0.3 0.17 0.82 0.13 1.32-0.52l0.07 0.09c-0.53 0.74-1.38 0.98-2.47 0.35-1.21-0.69-1.34-1.47-0.97-2.64l1.43-4.57-0.79-0.45 0.05-0.12 0.78 0.45 0.43-1.38c0.65 0.37 1.53 0.8 2.17 0.76z"/>
						</g>
						<g id="&lt;Group&gt;">
							<path id="&lt;Compound Path&gt;" fill-rule="evenodd" class="s1" d="m402.52 210.65c1.73 1 2.3 3.14 1.75 4.94-0.57 1.8-2.11 2.71-3.83 1.71-1.74-1-2.31-3.13-1.75-4.93 0.56-1.8 2.09-2.72 3.83-1.72zm-2.04 6.52c0.42 0.25 1.06-0.8 1.68-2.8 0.63-1.99 0.74-3.35 0.32-3.59-0.42-0.24-1.07 0.8-1.7 2.8-0.62 1.99-0.73 3.35-0.3 3.59z"/>
						</g>
						<g id="&lt;Group&gt;">
							<path id="&lt;Path&gt;" class="s1" d="m420.01 220.75l-0.61 1.95-0.1-0.06c-0.16-1.11-0.37-2.33-1.39-2.93-0.56-0.32-0.98-0.12-1.09 0.26-0.41 1.29 3.07 2.68 2.22 5.42-0.52 1.65-1.83 1.59-2.77 1.05q-0.87-0.51-1.24-1.52l-0.99 0.23-0.08-0.04 0.74-2.35 0.09 0.05c0.05 1.76 0.48 2.89 1.5 3.48 0.71 0.41 1.17 0.23 1.31-0.2 0.39-1.26-3.05-2.58-2.15-5.43 0.4-1.3 1.47-1.66 2.5-1.07 0.49 0.29 0.81 0.73 1.02 1.24l0.96-0.12z"/>
						</g>
					</g>
					<g id="&lt;Group&gt;">
						<path id="&lt;Path&gt;" class="s1" d="m389.29 221.48l-1.11 3.29 48.69 28.16 1.11-3.29z"/>
						<path id="&lt;Path&gt;" class="s1" d="m385.8 231.84l48.7 28.16 1.1-3.29-48.69-28.16z"/>
						<path id="&lt;Path&gt;" class="s1" d="m383.42 238.93l31.21 18 1.1-3.29-31.21-18z"/>
					</g>
				</g>
				<g id="&lt;Group&gt;">
					<path id="&lt;Path&gt;" class="s0" d="m863.61 463.83l-58.93-34.03c-2.07-1.19-4.41 0-5.24 2.65l-13.62 43.52c-0.83 2.65 0.18 5.77 2.24 6.96l58.94 34.02c2.06 1.19 4.41 0.01 5.23-2.64l13.62-43.52c0.83-2.65-0.17-5.77-2.24-6.96z"/>
					<g id="&lt;Group&gt;">
						<g id="&lt;Group&gt;">
							<path id="&lt;Path&gt;" class="s1" d="m810.3 442.45c1.17 0.68 1.27 1.78 0.89 2.99l-1.35 4.29 0.77 0.44-0.04 0.12-3.24-1.87 0.05-0.12 0.42 0.25 1.35-4.31c0.36-1.17 0.33-1.36 0.02-1.54-0.55-0.31-1.27 0.88-1.68 2.17l-0.93 2.96 0.44 0.25-0.05 0.12-3.22-1.86 0.04-0.12 0.75 0.43 1.91-6.11-0.75-0.44 0.04-0.12 2.8 1.61-0.63 2.02c0.52-1.03 1.31-1.8 2.41-1.16z"/>
						</g>
						<g id="&lt;Group&gt;">
							<path id="&lt;Compound Path&gt;" fill-rule="evenodd" class="s1" d="m826.99 457.43l0.1 0.06c-0.66 1.04-1.73 1.5-3.14 0.68-1.63-0.94-2.44-2.71-1.75-4.93 0.69-2.21 2.17-2.67 3.79-1.73 1.61 0.93 2.05 2.87 1.58 4.38l-3.04-1.76-0.04 0.12c-0.62 1.99-0.87 3.46-0.02 3.95 0.91 0.53 1.9 0.18 2.52-0.77zm-1.04-5.8c-0.39-0.23-0.9 0.92-1.37 2.37l0.98 0.57c0.4-1.34 0.81-2.69 0.39-2.94z"/>
						</g>
						<g id="&lt;Group&gt;">
							<path id="&lt;Path&gt;" class="s1" d="m822 447.26l-0.56 1.79 1.16 0.67-0.04 0.13-1.15-0.67-1.52 4.84c-0.21 0.69-0.2 1.1 0.09 1.26 0.3 0.18 0.82 0.13 1.32-0.51l0.08 0.09c-0.54 0.73-1.39 0.98-2.48 0.35-1.21-0.7-1.34-1.47-0.97-2.64l1.43-4.57-0.79-0.45 0.04-0.13 0.79 0.45 0.43-1.38c0.64 0.38 1.53 0.8 2.17 0.77z"/>
						</g>
						<g id="&lt;Group&gt;">
							<path id="&lt;Compound Path&gt;" fill-rule="evenodd" class="s1" d="m815.64 445.53c1.72 1 2.31 3.14 1.75 4.93-0.57 1.81-2.1 2.71-3.83 1.71-1.74-1-2.32-3.12-1.75-4.93 0.56-1.79 2.09-2.71 3.83-1.71zm-2.04 6.52c0.42 0.24 1.06-0.81 1.69-2.8 0.62-1.99 0.73-3.35 0.31-3.59-0.42-0.25-1.08 0.8-1.7 2.79-0.62 1.99-0.72 3.36-0.3 3.6z"/>
						</g>
						<g id="&lt;Group&gt;">
							<path id="&lt;Path&gt;" class="s1" d="m833.13 455.63l-0.61 1.94-0.09-0.05c-0.17-1.11-0.38-2.34-1.4-2.93-0.56-0.32-0.98-0.12-1.09 0.25-0.41 1.3 3.07 2.68 2.22 5.42-0.52 1.66-1.83 1.6-2.77 1.06q-0.88-0.52-1.24-1.53l-0.99 0.24-0.08-0.05 0.74-2.34 0.08 0.05c0.06 1.76 0.49 2.89 1.51 3.48 0.71 0.41 1.17 0.22 1.3-0.21 0.4-1.25-3.03-2.57-2.14-5.42 0.4-1.3 1.47-1.67 2.5-1.07 0.49 0.28 0.81 0.72 1.02 1.24l0.96-0.13z"/>
						</g>
					</g>
					<g id="&lt;Group&gt;">
						<path id="&lt;Path&gt;" class="s1" d="m802.41 456.35l-1.11 3.3 48.7 28.15 1.1-3.29z"/>
						<path id="&lt;Path&gt;" class="s1" d="m798.92 466.72l48.7 28.16 1.1-3.3-48.69-28.15z"/>
						<path id="&lt;Path&gt;" class="s1" d="m796.54 473.81l31.21 17.99 1.11-3.29-31.22-18z"/>
					</g>
				</g>
			</g>
			<g id="&lt;Group&gt;">
				<g id="&lt;Group&gt;">
					<path id="&lt;Path&gt;" class="s7" d="m311.14 421.88l-67.15-38.77c-3.16-1.83-5.73-4.61-7.23-7.84-1.49-3.22-1.8-6.61-0.85-9.54l39.47-120.73-130.13 75.61-39.46 120.74c-0.95 2.92-0.64 6.32 0.85 9.53 1.5 3.23 4.07 6.02 7.24 7.85l67.15 38.77c2.74 1.58 5.03 1.93 6.58 1.03q65.06-37.81 130.12-75.62c-1.55 0.9-3.85 0.55-6.59-1.03z"/>
					<path id="&lt;Path&gt;" class="s0" d="m324.06 414.91l-39.72-170.48-132.02 73.1c0 0 42.45 183.77 39.97 186.21q-0.53 0.52-1.16 0.88 65.06-37.81 130.12-75.61 0.62-0.36 1.16-0.89c2.48-2.44 3.06-7.13 1.65-13.21z"/>
					<path id="&lt;Path&gt;" class="s0" d="m141.6 312.76l130.12-75.61 12.62 7.28-130.12 75.62z"/>
					<path id="&lt;Compound Path&gt;" fill-rule="evenodd" class="s0" d="m193.95 490.52c1.41 6.09 0.82 10.78-1.66 13.22-2.48 2.43-6.49 2.25-11.28-0.51l-67.15-38.78c-4.79-2.76-8.79-7.2-11.24-12.48-2.46-5.3-3.02-10.65-1.58-15.09l40.56-124.12 12.62 7.29zm-5.67 7.49c1.51-1.48 1.84-4.51 0.9-8.52l-38.65-165.84-5.27-3.04-39.46 120.73c-0.96 2.93-0.65 6.32 0.85 9.54 1.49 3.23 4.06 6.02 7.23 7.84l67.15 38.77c3.16 1.83 5.74 2.01 7.25 0.52z"/>
				</g>
				<g id="&lt;Group&gt;">
					<path id="&lt;Path&gt;" class="s0" d="m165.71 322.87l114.01-66.25 37.17 159.52-114.01 66.25z"/>
				</g>
				<path id="&lt;Path&gt;" class="s2" d="m279.72 256.62l-114.01 66.25 9.27 39.76 114-66.25z"/>
				<g id="&lt;Group&gt;">
					<path id="&lt;Path&gt;" class="s1" d="m170.21 280.38c-4.85-2.8-9.25-3.05-12.42-1.2l-1.24 0.72q0.01-0.01 0.03-0.02c-3.15 1.81-5.12 5.69-5.13 11.2-0.02 4.39 1.24 9.29 3.44 13.96l2.13-1.24c-1.96-4.26-3.09-8.71-3.07-12.72 0.01-4.73 1.58-8.15 4.14-9.97 2.88-1.34 6.7-0.99 10.88 1.43 8.93 5.15 16.19 17.71 16.15 27.98-0.01 5.9-2.51 10.07-6.67 11.18l0.74 1.59c0.99-0.26 1.88-0.71 2.68-1.29q-0.3 0.23-0.62 0.44l1.24-0.72c3.23-1.88 5.12-5.88 5.13-11.19 0.03-11.06-7.78-24.59-17.41-30.15z"/>
					<path id="&lt;Path&gt;" class="s1" d="m200.16 263.04c-4.85-2.8-9.25-3.05-12.43-1.21l-1.23 0.72q0.01 0 0.03-0.01c-3.15 1.81-5.12 5.69-5.13 11.2-0.01 4.39 1.24 9.28 3.44 13.96l2.13-1.24c-1.96-4.26-3.09-8.71-3.08-12.72 0.02-4.73 1.59-8.15 4.15-9.97 2.89-1.34 6.69-0.99 10.88 1.42 8.94 5.16 16.19 17.72 16.15 27.99-0.01 5.89-2.51 10.07-6.67 11.18l0.74 1.59c0.99-0.26 1.88-0.72 2.68-1.29q-0.29 0.23-0.62 0.44l1.25-0.73c3.22-1.87 5.11-5.88 5.12-11.18 0.03-11.06-7.78-24.59-17.41-30.15z"/>
					<path id="&lt;Path&gt;" class="s1" d="m230.11 245.7c-4.84-2.8-9.24-3.05-12.42-1.21l-1.24 0.72q0.02 0 0.03-0.01c-3.15 1.81-5.12 5.68-5.13 11.2-0.01 4.39 1.24 9.28 3.44 13.96l2.14-1.24c-1.97-4.27-3.09-8.71-3.08-12.72 0.01-4.73 1.58-8.15 4.14-9.97 2.88-1.34 6.7-0.99 10.88 1.42 8.93 5.16 16.19 17.72 16.16 27.99-0.02 5.89-2.51 10.07-6.68 11.18l0.74 1.59c0.99-0.26 1.88-0.72 2.69-1.29q-0.3 0.23-0.62 0.43l1.23-0.72c3.23-1.87 5.12-5.88 5.13-11.19 0.03-11.05-7.77-24.58-17.41-30.14z"/>
					<path id="&lt;Path&gt;" class="s1" d="m260.06 228.36c-4.84-2.8-9.24-3.05-12.42-1.21l-1.24 0.72q0.02-0.01 0.03-0.01c-3.15 1.81-5.11 5.68-5.13 11.19-0.01 4.4 1.25 9.29 3.44 13.97l2.13-1.24c-1.96-4.27-3.08-8.71-3.07-12.72 0.01-4.74 1.59-8.15 4.14-9.97 2.89-1.34 6.7-0.99 10.88 1.42 8.94 5.16 16.19 17.72 16.16 27.99-0.02 5.89-2.52 10.07-6.68 11.18l0.74 1.59c0.99-0.27 1.88-0.72 2.69-1.29q-0.3 0.23-0.62 0.43l1.24-0.72c3.22-1.87 5.11-5.88 5.13-11.19 0.03-11.05-7.78-24.58-17.42-30.14z"/>
				</g>
				<g id="&lt;Group&gt;">
					<path id="&lt;Path&gt;" class="s1" d="m247.72 393.42l1.69 5.36-23.9 13.8 7.75-14.19c3.99-7.29 10.28-15.86 7.4-25.02-2.47-7.87-9.99-10.24-19.24-4.9-9.16 5.29-13.36 15.4-10.51 24.48 1.85 5.87 6.48 7.67 10.09 5.59 3.62-2.09 5.72-7.45 4.15-12.45-1.46-4.66-5.9-6.4-9.21-4.49-2.65 1.53-4.76 5.16-5.16 8.39-1.14-7.29 2.24-14.1 6.61-16.63 4.8-2.76 9.64 2.72 12.37 11.41 2.79 8.87 1.88 15.16-1.62 21.64l-8.55 15.92 3.04 9.66 32-18.47-6.42-20.39z"/>
					<path id="&lt;Compound Path&gt;" fill-rule="evenodd" class="s1" d="m275.95 402.06c-9.54 5.5-18.86 1.59-23.58-13.44-5.46-17.37 1.13-38.67 18-48.41l0.19 0.6c-8.93 5.16-10.51 18.97-7.77 32.08-0.34-3.73 0.63-6.29 3.85-8.14 6.75-3.9 15.57-2.64 19.39 9.52 3.37 10.72-0.57 22.3-10.08 27.79zm-2.74-20.39c-4.07-12.92-6.03-15.2-8.19-13.94-2.68 1.54-2.46 5.16 0.83 15.65 4.06 12.91 7.33 19.51 10.06 17.94 2.73-1.58 0.9-8.18-2.7-19.65z"/>
				</g>
			</g>
			<g id="&lt;Group&gt;">
				<path id="&lt;Path&gt;" class="s0" d="m673.05 768.72q-1.84-16.15-3.68-32.3c13.37 0 94.7-0.31 108.99-0.31l-3.5 32.31c-0.77 7.14-5.99 14.14-15.59 19.49-20.33 11.34-52.63 11.02-72.13-0.73-8.64-5.2-13.32-11.77-14.09-18.46z"/>
				<path id="&lt;Path&gt;" class="s0" d="m788.46 642.75c-0.98 9.09-7.63 18.01-19.87 24.84-25.9 14.44-67.05 14.02-91.9-0.93-11.01-6.63-16.98-15.01-17.95-23.54l2.73 23.97c-0.1 9.04 5.64 27.37 17.31 34.39 23.79 14.32 63.17 14.72 87.95 0.89 12.87-7.17 19.27-26.02 19.13-35.59z"/>
				<path id="&lt;Path&gt;" class="s2" d="m652.17 640.71q-0.02-7.96-0.04-15.92c20.27 0 131.61-0.42 142.84-0.42q0.03 7.96 0.05 15.92c0.03 10.9-7.33 21.8-21.98 29.97-28.46 15.87-73.68 15.42-100.99-1.02-13.25-7.97-19.85-18.25-19.88-28.53z"/>
				<path id="&lt;Path&gt;" class="s2" d="m673.19 595.34q2.73-1.58 5.47-3.16c-24.57 14.19-25.13 37.19-1.06 51.68 24.34 14.64 64.63 15.05 89.99 0.91 25.37-14.15 26.21-37.49 1.87-52.14l5.63 3.21c27.31 16.44 26.37 42.63-2.09 58.5-28.47 15.87-73.68 15.42-100.99-1.02-27.01-16.26-26.39-42.06 1.18-57.98z"/>
				<path id="&lt;Path&gt;" class="s2" d="m769.46 592.63c24.34 14.65 23.5 37.99-1.87 52.14-25.36 14.14-65.65 13.73-89.99-0.91-24.33-14.65-23.5-37.99 1.86-52.14 25.37-14.14 65.66-13.73 90 0.91z"/>
				<path id="&lt;Path&gt;" class="s2" d="m735.29 599.98c-6.25-3.76-16.59-3.86-23.1-0.23-6.51 3.63-6.73 9.62-0.48 13.38q0.16 0.1 0.32 0.19 3.27 1.86 6.54 3.72-0.07-0.04-0.14-0.08c-2.7-1.62-2.61-4.21 0.2-5.78 2.82-1.57 7.28-1.52 9.98 0.1 2.67 1.61 2.61 4.16-0.12 5.73q3.26-1.88 6.53-3.76c6.3-3.64 6.44-9.55 0.27-13.27z"/>
				<g id="&lt;Group&gt;">
					<path id="&lt;Path&gt;" class="s2" d="m728.09 610.85c2.42 1.46 2.34 3.78-0.19 5.19-2.52 1.41-6.53 1.37-8.95-0.09-2.43-1.46-2.34-3.78 0.18-5.19 2.53-1.4 6.54-1.37 8.96 0.09z"/>
				</g>
				<path id="&lt;Compound Path&gt;" fill-rule="evenodd" class="s2" d="m750.68 591.45c14.41 8.67 13.91 22.48-1.1 30.85-15.01 8.38-38.86 8.14-53.27-0.53-14.4-8.67-13.91-22.49 1.1-30.86 15.02-8.37 38.87-8.13 53.27 0.54zm-16.6 9.26c-5.61-3.38-14.89-3.48-20.74-0.21-5.84 3.25-6.04 8.63-0.43 12.01 5.61 3.38 14.9 3.47 20.74 0.21 5.85-3.26 6.04-8.64 0.43-12.01z"/>
				<path id="&lt;Path&gt;" class="s2" d="m686.9 596.98q5.02-2.9 10.03-5.8c-14.54 8.4-14.87 22.01-0.62 30.59 14.41 8.67 38.26 8.91 53.27 0.53 15.01-8.37 15.51-22.18 1.1-30.85l10.34 5.89c19.86 11.96 19.18 31.01-1.53 42.55-20.7 11.54-53.58 11.21-73.44-0.74-19.65-11.83-19.2-30.6 0.85-42.17z"/>
				<path id="&lt;Path&gt;" class="s8" d="m668.98 736.08l-7.39-66.44c0.91 8.18 6.62 16.22 17.19 22.58 23.79 14.32 63.17 14.72 87.95 0.89 11.75-6.54 18.11-15.11 19.03-23.83l-7.01 66.48c-0.82 7.71-6.44 15.28-16.82 21.06-21.92 12.22-56.73 11.87-77.75-0.78-9.34-5.63-14.39-12.73-15.2-19.96z"/>
			</g>
		</g>
	</g>
</svg>